<svg width="1280" height="720" xmlns="http://www.w3.org/2000/svg" xmlns:xlink="http://www.w3.org/1999/xlink" overflow="hidden"><defs><filter id="fx0" x="-10%" y="-10%" width="120%" height="120%" filterUnits="userSpaceOnUse" primitiveUnits="userSpaceOnUse"><feComponentTransfer color-interpolation-filters="sRGB"><feFuncR type="discrete" tableValues="0.498039 0.498039"/><feFuncG type="discrete" tableValues="0.498039 0.498039"/><feFuncB type="discrete" tableValues="0.498039 0.498039"/><feFuncA type="linear" slope="0.4" intercept="0"/></feComponentTransfer><feGaussianBlur stdDeviation="1.77778 1.77778"/></filter><filter id="fx1" x="-10%" y="-10%" width="120%" height="120%" filterUnits="userSpaceOnUse" primitiveUnits="userSpaceOnUse"><feComponentTransfer color-interpolation-filters="sRGB"><feFuncR type="discrete" tableValues="0 0"/><feFuncG type="discrete" tableValues="0 0"/><feFuncB type="discrete" tableValues="0 0"/><feFuncA type="linear" slope="0.4" intercept="0"/></feComponentTransfer><feGaussianBlur stdDeviation="1.77778 1.77778"/></filter><filter id="fx2" x="-10%" y="-10%" width="120%" height="120%" filterUnits="userSpaceOnUse" primitiveUnits="userSpaceOnUse"><feComponentTransfer color-interpolation-filters="sRGB"><feFuncR type="discrete" tableValues="1 1"/><feFuncG type="discrete" tableValues="1 1"/><feFuncB type="discrete" tableValues="1 1"/><feFuncA type="linear" slope="0.4" intercept="0"/></feComponentTransfer><feGaussianBlur stdDeviation="1.77778 1.77778"/></filter><filter id="fx3" x="-10%" y="-10%" width="120%" height="120%" filterUnits="userSpaceOnUse" primitiveUnits="userSpaceOnUse"><feComponentTransfer color-interpolation-filters="sRGB"><feFuncR type="discrete" tableValues="0.74902 0.74902"/><feFuncG type="discrete" tableValues="0.74902 0.74902"/><feFuncB type="discrete" tableValues="0.74902 0.74902"/><feFuncA type="linear" slope="0.4" intercept="0"/></feComponentTransfer><feGaussianBlur stdDeviation="1.77778 1.77778"/></filter><filter id="fx4" x="-10%" y="-10%" width="120%" height="120%" filterUnits="userSpaceOnUse" primitiveUnits="userSpaceOnUse"><feComponentTransfer color-interpolation-filters="sRGB"><feFuncR type="discrete" tableValues="1 1"/><feFuncG type="discrete" tableValues="1 1"/><feFuncB type="discrete" tableValues="1 1"/><feFuncA type="linear" slope="0.4" intercept="0"/></feComponentTransfer><feGaussianBlur stdDeviation="1.77778 1.77778"/></filter><filter id="fx5" x="-10%" y="-10%" width="120%" height="120%" filterUnits="userSpaceOnUse" primitiveUnits="userSpaceOnUse"><feComponentTransfer color-interpolation-filters="sRGB"><feFuncR type="discrete" tableValues="0.74902 0.74902"/><feFuncG type="discrete" tableValues="0.74902 0.74902"/><feFuncB type="discrete" tableValues="0.74902 0.74902"/><feFuncA type="linear" slope="0.4" intercept="0"/></feComponentTransfer><feGaussianBlur stdDeviation="1.77778 1.77778"/></filter><linearGradient x1="449.894" y1="-134.836" x2="810.106" y2="854.836" gradientUnits="userSpaceOnUse" spreadMethod="reflect" id="fill6"><stop offset="0" stop-color="#EFEFEF"/><stop offset="0.0416667" stop-color="#EEEEEE"/><stop offset="0.0833333" stop-color="#EEEEEE"/><stop offset="0.125" stop-color="#EEEEEE"/><stop offset="0.166667" stop-color="#EEEEEE"/><stop offset="0.208333" stop-color="#EDEDED"/><stop offset="0.25" stop-color="#EDEDED"/><stop offset="0.291667" stop-color="#ECECEC"/><stop offset="0.333333" stop-color="#EBEBEB"/><stop offset="0.375" stop-color="#EBEBEB"/><stop offset="0.416667" stop-color="#EAEAEA"/><stop offset="0.458333" stop-color="#E9E9E9"/><stop offset="0.5" stop-color="#E8E8E8"/><stop offset="0.541667" stop-color="#E7E7E7"/><stop offset="0.583333" stop-color="#E5E5E5"/><stop offset="0.625" stop-color="#E4E4E4"/><stop offset="0.666667" stop-color="#E3E3E3"/><stop offset="0.708333" stop-color="#E1E1E1"/><stop offset="0.75" stop-color="#E0E0E0"/><stop offset="0.791667" stop-color="#DEDEDE"/><stop offset="0.833333" stop-color="#DDDDDD"/><stop offset="0.875" stop-color="#DBDBDB"/><stop offset="0.916667" stop-color="#D9D9D9"/><stop offset="0.958333" stop-color="#D7D7D7"/><stop offset="1" stop-color="#D6D6D6"/></linearGradient><linearGradient x1="288.171" y1="602.13" x2="-118.171" y2="117.87" gradientUnits="userSpaceOnUse" spreadMethod="reflect" id="fill7"><stop offset="0" stop-color="#7F7F7F"/><stop offset="0.3" stop-color="#D0B298"/><stop offset="0.61" stop-color="#E1C09F"/><stop offset="0.95804" stop-color="#E1A379"/><stop offset="1" stop-color="#E1A379"/></linearGradient><linearGradient x1="604.542" y1="263.751" x2="811.458" y2="832.249" gradientUnits="userSpaceOnUse" spreadMethod="reflect" id="fill8"><stop offset="0" stop-color="#FFFFFF"/><stop offset="1" stop-color="#FFFFFF"/></linearGradient><linearGradient x1="604.542" y1="263.751" x2="811.458" y2="832.249" gradientUnits="userSpaceOnUse" spreadMethod="reflect" id="fill9"><stop offset="0" stop-color="#FFFFFF"/><stop offset="1" stop-color="#FFFFFF"/></linearGradient><linearGradient x1="604.542" y1="-12.2486" x2="811.458" y2="556.249" gradientUnits="userSpaceOnUse" spreadMethod="reflect" id="fill10"><stop offset="0" stop-color="#FFFFFF"/><stop offset="1" stop-color="#FFFFFF"/></linearGradient><linearGradient x1="604.542" y1="-12.2486" x2="811.458" y2="556.249" gradientUnits="userSpaceOnUse" spreadMethod="reflect" id="fill11"><stop offset="0" stop-color="#FFFFFF"/><stop offset="1" stop-color="#FFFFFF"/></linearGradient></defs><g><rect x="0" y="0" width="1280" height="720" fill="#FFFFFF"/><g filter="url(#fx0)" transform="translate(4 22)"><g><path d="M6.82843 16.9216C6.82843 11.3473 11.3473 6.82843 16.9216 6.82843L1240.74 6.82843C1246.31 6.82843 1250.83 11.3473 1250.83 16.9216L1250.83 664.735C1250.83 670.31 1246.31 674.828 1240.74 674.828L16.9216 674.828C11.3473 674.828 6.82843 670.31 6.82843 664.735Z" fill="#FF0000" fill-rule="evenodd"/></g></g><path d="M8 36.0932C8 30.5189 12.5189 26 18.0932 26L1241.91 26C1247.48 26 1252 30.5189 1252 36.0932L1252 683.907C1252 689.481 1247.48 694 1241.91 694L18.0932 694C12.5189 694 8 689.481 8 683.907Z" fill="url(#fill6)" fill-rule="evenodd"/><g filter="url(#fx1)" transform="translate(4 8)"><g><path d="M160.828 685.1C160.828 694.891 152.891 702.828 143.1 702.828L24.5573 702.828C14.7659 702.828 6.82845 694.891 6.82845 685.1L6.82845 24.5573C6.82845 14.7659 14.7659 6.82849 24.5573 6.82849L143.1 6.82849C152.891 6.82849 160.828 14.7659 160.828 24.5573Z" fill="#FF0000" fill-rule="evenodd"/></g></g><path d="M162 690.271C162 700.063 154.063 708 144.271 708L25.7288 708C15.9375 708 8.00002 700.063 8.00002 690.271L8.00002 29.7289C8.00002 19.9375 15.9375 12.0001 25.7288 12.0001L144.271 12.0001C154.063 12.0001 162 19.9375 162 29.7289Z" fill="url(#fill7)" fill-rule="evenodd"/><g filter="url(#fx2)" transform="translate(168 409)"><g><path d="M7.17157 15.6189C7.17157 10.9536 10.9536 7.17157 15.6189 7.17157L1058.72 7.17157C1063.39 7.17157 1067.17 10.9536 1067.17 15.6189L1067.17 256.724C1067.17 261.39 1063.39 265.172 1058.72 265.172L15.6189 265.172C10.9536 265.172 7.17157 261.39 7.17157 256.724Z" fill="#FF0000" fill-rule="evenodd"/></g></g><path d="M178 427.447C178 422.782 181.782 419 186.447 419L1229.55 419C1234.22 419 1238 422.782 1238 427.447L1238 668.553C1238 673.218 1234.22 677 1229.55 677L186.447 677C181.782 677 178 673.218 178 668.553Z" fill="url(#fill8)" fill-rule="evenodd"/><g filter="url(#fx3)" transform="translate(174 415)"><g><path d="M6.82843 15.2758C6.82843 10.6104 10.6104 6.82843 15.2757 6.82843L1058.38 6.82843C1063.05 6.82843 1066.83 10.6104 1066.83 15.2758L1066.83 256.381C1066.83 261.046 1063.05 264.828 1058.38 264.828L15.2757 264.828C10.6104 264.828 6.82843 261.046 6.82843 256.381Z" fill="#FF0000" fill-rule="evenodd"/></g></g><path d="M178 427.447C178 422.782 181.782 419 186.447 419L1229.55 419C1234.22 419 1238 422.782 1238 427.447L1238 668.553C1238 673.218 1234.22 677 1229.55 677L186.447 677C181.782 677 178 673.218 178 668.553Z" fill="url(#fill9)" fill-rule="evenodd"/><g filter="url(#fx4)" transform="translate(168 133)"><g><path d="M7.17157 15.6189C7.17157 10.9536 10.9536 7.17157 15.6189 7.17157L1058.72 7.17157C1063.39 7.17157 1067.17 10.9536 1067.17 15.6189L1067.17 256.724C1067.17 261.39 1063.39 265.172 1058.72 265.172L15.6189 265.172C10.9536 265.172 7.17157 261.39 7.17157 256.724Z" fill="#FF0000" fill-rule="evenodd"/></g></g><path d="M178 151.447C178 146.782 181.782 143 186.447 143L1229.55 143C1234.22 143 1238 146.782 1238 151.447L1238 392.553C1238 397.218 1234.22 401 1229.55 401L186.447 401C181.782 401 178 397.218 178 392.553Z" fill="url(#fill10)" fill-rule="evenodd"/><g filter="url(#fx5)" transform="translate(174 139)"><g><path d="M6.82843 15.2758C6.82843 10.6104 10.6104 6.82843 15.2757 6.82843L1058.38 6.82843C1063.05 6.82843 1066.83 10.6104 1066.83 15.2758L1066.83 256.381C1066.83 261.046 1063.05 264.828 1058.38 264.828L15.2757 264.828C10.6104 264.828 6.82843 261.046 6.82843 256.381Z" fill="#FF0000" fill-rule="evenodd"/></g></g><path d="M178 151.447C178 146.782 181.782 143 186.447 143L1229.55 143C1234.22 143 1238 146.782 1238 151.447L1238 392.553C1238 397.218 1234.22 401 1229.55 401L186.447 401C181.782 401 178 397.218 178 392.553Z" fill="url(#fill11)" fill-rule="evenodd"/></g></svg>