<svg width="1280" height="720" xmlns="http://www.w3.org/2000/svg" xmlns:xlink="http://www.w3.org/1999/xlink" overflow="hidden"><defs><filter id="fx0" x="-10%" y="-10%" width="120%" height="120%" filterUnits="userSpaceOnUse" primitiveUnits="userSpaceOnUse"><feComponentTransfer color-interpolation-filters="sRGB"><feFuncR type="discrete" tableValues="0.498039 0.498039"/><feFuncG type="discrete" tableValues="0.498039 0.498039"/><feFuncB type="discrete" tableValues="0.498039 0.498039"/><feFuncA type="linear" slope="0.4" intercept="0"/></feComponentTransfer><feGaussianBlur stdDeviation="1.77778 1.77778"/></filter><filter id="fx1" x="-10%" y="-10%" width="120%" height="120%" filterUnits="userSpaceOnUse" primitiveUnits="userSpaceOnUse"><feComponentTransfer color-interpolation-filters="sRGB"><feFuncR type="discrete" tableValues="0 0"/><feFuncG type="discrete" tableValues="0 0"/><feFuncB type="discrete" tableValues="0 0"/><feFuncA type="linear" slope="0.4" intercept="0"/></feComponentTransfer><feGaussianBlur stdDeviation="1.77778 1.77778"/></filter><filter id="fx2" x="-10%" y="-10%" width="120%" height="120%" filterUnits="userSpaceOnUse" primitiveUnits="userSpaceOnUse"><feComponentTransfer color-interpolation-filters="sRGB"><feFuncR type="discrete" tableValues="1 1"/><feFuncG type="discrete" tableValues="1 1"/><feFuncB type="discrete" tableValues="1 1"/><feFuncA type="linear" slope="0.4" intercept="0"/></feComponentTransfer><feGaussianBlur stdDeviation="1.77778 1.77778"/></filter><filter id="fx3" x="-10%" y="-10%" width="120%" height="120%" filterUnits="userSpaceOnUse" primitiveUnits="userSpaceOnUse"><feComponentTransfer color-interpolation-filters="sRGB"><feFuncR type="discrete" tableValues="0.74902 0.74902"/><feFuncG type="discrete" tableValues="0.74902 0.74902"/><feFuncB type="discrete" tableValues="0.74902 0.74902"/><feFuncA type="linear" slope="0.4" intercept="0"/></feComponentTransfer><feGaussianBlur stdDeviation="1.77778 1.77778"/></filter><filter id="fx4" x="-10%" y="-10%" width="120%" height="120%" filterUnits="userSpaceOnUse" primitiveUnits="userSpaceOnUse"><feComponentTransfer color-interpolation-filters="sRGB"><feFuncR type="discrete" tableValues="1 1"/><feFuncG type="discrete" tableValues="1 1"/><feFuncB type="discrete" tableValues="1 1"/><feFuncA type="linear" slope="0.4" intercept="0"/></feComponentTransfer><feGaussianBlur stdDeviation="1.77778 1.77778"/></filter><filter id="fx5" x="-10%" y="-10%" width="120%" height="120%" filterUnits="userSpaceOnUse" primitiveUnits="userSpaceOnUse"><feComponentTransfer color-interpolation-filters="sRGB"><feFuncR type="discrete" tableValues="0.74902 0.74902"/><feFuncG type="discrete" tableValues="0.74902 0.74902"/><feFuncB type="discrete" tableValues="0.74902 0.74902"/><feFuncA type="linear" slope="0.4" intercept="0"/></feComponentTransfer><feGaussianBlur stdDeviation="1.77778 1.77778"/></filter><filter id="fx6" x="-10%" y="-10%" width="120%" height="120%" filterUnits="userSpaceOnUse" primitiveUnits="userSpaceOnUse"><feComponentTransfer color-interpolation-filters="sRGB"><feFuncR type="discrete" tableValues="1 1"/><feFuncG type="discrete" tableValues="1 1"/><feFuncB type="discrete" tableValues="1 1"/><feFuncA type="linear" slope="0.4" intercept="0"/></feComponentTransfer><feGaussianBlur stdDeviation="1.77778 1.77778"/></filter><filter id="fx7" x="-10%" y="-10%" width="120%" height="120%" filterUnits="userSpaceOnUse" primitiveUnits="userSpaceOnUse"><feComponentTransfer color-interpolation-filters="sRGB"><feFuncR type="discrete" tableValues="0.74902 0.74902"/><feFuncG type="discrete" tableValues="0.74902 0.74902"/><feFuncB type="discrete" tableValues="0.74902 0.74902"/><feFuncA type="linear" slope="0.4" intercept="0"/></feComponentTransfer><feGaussianBlur stdDeviation="1.77778 1.77778"/></filter><linearGradient x1="449.894" y1="-134.836" x2="810.106" y2="854.836" gradientUnits="userSpaceOnUse" spreadMethod="reflect" id="fill8"><stop offset="0" stop-color="#EFEFEF"/><stop offset="0.0416667" stop-color="#EEEEEE"/><stop offset="0.0833333" stop-color="#EEEEEE"/><stop offset="0.125" stop-color="#EEEEEE"/><stop offset="0.166667" stop-color="#EEEEEE"/><stop offset="0.208333" stop-color="#EDEDED"/><stop offset="0.25" stop-color="#EDEDED"/><stop offset="0.291667" stop-color="#ECECEC"/><stop offset="0.333333" stop-color="#EBEBEB"/><stop offset="0.375" stop-color="#EBEBEB"/><stop offset="0.416667" stop-color="#EAEAEA"/><stop offset="0.458333" stop-color="#E9E9E9"/><stop offset="0.5" stop-color="#E8E8E8"/><stop offset="0.541667" stop-color="#E7E7E7"/><stop offset="0.583333" stop-color="#E5E5E5"/><stop offset="0.625" stop-color="#E4E4E4"/><stop offset="0.666667" stop-color="#E3E3E3"/><stop offset="0.708333" stop-color="#E1E1E1"/><stop offset="0.75" stop-color="#E0E0E0"/><stop offset="0.791667" stop-color="#DEDEDE"/><stop offset="0.833333" stop-color="#DDDDDD"/><stop offset="0.875" stop-color="#DBDBDB"/><stop offset="0.916667" stop-color="#D9D9D9"/><stop offset="0.958333" stop-color="#D7D7D7"/><stop offset="1" stop-color="#D6D6D6"/></linearGradient><linearGradient x1="288.171" y1="602.13" x2="-118.171" y2="117.87" gradientUnits="userSpaceOnUse" spreadMethod="reflect" id="fill9"><stop offset="0" stop-color="#7F7F7F"/><stop offset="0.3" stop-color="#D0B298"/><stop offset="0.61" stop-color="#E1C09F"/><stop offset="0.95804" stop-color="#E1A379"/><stop offset="1" stop-color="#E1A379"/></linearGradient><linearGradient x1="357.737" y1="353.581" x2="499.263" y2="742.419" gradientUnits="userSpaceOnUse" spreadMethod="reflect" id="fill10"><stop offset="0" stop-color="#FFFFFF"/><stop offset="1" stop-color="#FFFFFF"/></linearGradient><linearGradient x1="357.737" y1="353.581" x2="499.263" y2="742.419" gradientUnits="userSpaceOnUse" spreadMethod="reflect" id="fill11"><stop offset="0" stop-color="#FFFFFF"/><stop offset="1" stop-color="#FFFFFF"/></linearGradient><linearGradient x1="357.737" y1="77.581" x2="499.263" y2="466.419" gradientUnits="userSpaceOnUse" spreadMethod="reflect" id="fill12"><stop offset="0" stop-color="#FFFFFF"/><stop offset="1" stop-color="#FFFFFF"/></linearGradient><linearGradient x1="357.737" y1="77.581" x2="499.263" y2="466.419" gradientUnits="userSpaceOnUse" spreadMethod="reflect" id="fill13"><stop offset="0" stop-color="#FFFFFF"/><stop offset="1" stop-color="#FFFFFF"/></linearGradient><linearGradient x1="849.487" y1="87.1353" x2="1084.51" y2="732.865" gradientUnits="userSpaceOnUse" spreadMethod="reflect" id="fill14"><stop offset="0" stop-color="#FFFFFF"/><stop offset="1" stop-color="#FFFFFF"/></linearGradient><linearGradient x1="849.487" y1="87.1353" x2="1084.51" y2="732.865" gradientUnits="userSpaceOnUse" spreadMethod="reflect" id="fill15"><stop offset="0" stop-color="#FFFFFF"/><stop offset="1" stop-color="#FFFFFF"/></linearGradient></defs><g><rect x="0" y="0" width="1280" height="720" fill="#FFFFFF"/><g filter="url(#fx0)" transform="translate(4 22)"><g><path d="M6.82843 16.9216C6.82843 11.3473 11.3473 6.82843 16.9216 6.82843L1240.74 6.82843C1246.31 6.82843 1250.83 11.3473 1250.83 16.9216L1250.83 664.735C1250.83 670.31 1246.31 674.828 1240.74 674.828L16.9216 674.828C11.3473 674.828 6.82843 670.31 6.82843 664.735Z" fill="#FF0000" fill-rule="evenodd"/></g></g><path d="M8 36.0932C8 30.5189 12.5189 26 18.0932 26L1241.91 26C1247.48 26 1252 30.5189 1252 36.0932L1252 683.907C1252 689.481 1247.48 694 1241.91 694L18.0932 694C12.5189 694 8 689.481 8 683.907Z" fill="url(#fill8)" fill-rule="evenodd"/><g filter="url(#fx1)" transform="translate(4 8)"><g><path d="M160.828 685.1C160.828 694.891 152.891 702.828 143.1 702.828L24.5573 702.828C14.7659 702.828 6.82845 694.891 6.82845 685.1L6.82845 24.5573C6.82845 14.7659 14.7659 6.82849 24.5573 6.82849L143.1 6.82849C152.891 6.82849 160.828 14.7659 160.828 24.5573Z" fill="#FF0000" fill-rule="evenodd"/></g></g><path d="M162 690.271C162 700.063 154.063 708 144.271 708L25.7288 708C15.9375 708 8.00002 700.063 8.00002 690.271L8.00002 29.7289C8.00002 19.9375 15.9375 12.0001 25.7288 12.0001L144.271 12.0001C154.063 12.0001 162 19.9375 162 29.7289Z" fill="url(#fill9)" fill-rule="evenodd"/><g filter="url(#fx2)" transform="translate(168 409)"><g><path d="M7.17157 15.6186C7.17157 10.9534 10.9534 7.17157 15.6185 7.17157L499.725 7.17157C504.39 7.17157 508.172 10.9534 508.172 15.6186L508.172 256.725C508.172 261.39 504.39 265.172 499.725 265.172L15.6185 265.172C10.9534 265.172 7.17157 261.39 7.17157 256.725Z" fill="#FF0000" fill-rule="evenodd"/></g></g><path d="M178 427.447C178 422.782 181.782 419 186.447 419L670.553 419C675.218 419 679 422.782 679 427.447L679 668.553C679 673.218 675.218 677 670.553 677L186.447 677C181.782 677 178 673.218 178 668.553Z" fill="url(#fill10)" fill-rule="evenodd"/><g filter="url(#fx3)" transform="translate(174 415)"><g><path d="M6.82843 15.2754C6.82843 10.6103 10.6103 6.82843 15.2754 6.82843L499.381 6.82843C504.047 6.82843 507.828 10.6103 507.828 15.2754L507.828 256.381C507.828 261.047 504.047 264.828 499.381 264.828L15.2754 264.828C10.6103 264.828 6.82843 261.047 6.82843 256.381Z" fill="#FF0000" fill-rule="evenodd"/></g></g><path d="M178 427.447C178 422.782 181.782 419 186.447 419L670.553 419C675.218 419 679 422.782 679 427.447L679 668.553C679 673.218 675.218 677 670.553 677L186.447 677C181.782 677 178 673.218 178 668.553Z" fill="url(#fill11)" fill-rule="evenodd"/><g filter="url(#fx4)" transform="translate(168 133)"><g><path d="M7.17157 15.6186C7.17157 10.9534 10.9534 7.17157 15.6185 7.17157L499.725 7.17157C504.39 7.17157 508.172 10.9534 508.172 15.6186L508.172 256.725C508.172 261.39 504.39 265.172 499.725 265.172L15.6185 265.172C10.9534 265.172 7.17157 261.39 7.17157 256.725Z" fill="#FF0000" fill-rule="evenodd"/></g></g><path d="M178 151.447C178 146.782 181.782 143 186.447 143L670.553 143C675.218 143 679 146.782 679 151.447L679 392.553C679 397.218 675.218 401 670.553 401L186.447 401C181.782 401 178 397.218 178 392.553Z" fill="url(#fill12)" fill-rule="evenodd"/><g filter="url(#fx5)" transform="translate(174 139)"><g><path d="M6.82843 15.2754C6.82843 10.6103 10.6103 6.82843 15.2754 6.82843L499.381 6.82843C504.047 6.82843 507.828 10.6103 507.828 15.2754L507.828 256.381C507.828 261.047 504.047 264.828 499.381 264.828L15.2754 264.828C10.6103 264.828 6.82843 261.047 6.82843 256.381Z" fill="#FF0000" fill-rule="evenodd"/></g></g><path d="M178 151.447C178 146.782 181.782 143 186.447 143L670.553 143C675.218 143 679 146.782 679 151.447L679 392.553C679 397.218 675.218 401 670.553 401L186.447 401C181.782 401 178 397.218 178 392.553Z" fill="url(#fill13)" fill-rule="evenodd"/><g filter="url(#fx6)" transform="translate(686 133)"><g><path d="M7.17157 24.655C7.17157 14.9992 14.9992 7.17157 24.655 7.17157L531.688 7.17157C541.344 7.17157 549.172 14.9992 549.172 24.655L549.172 523.688C549.172 533.344 541.344 541.172 531.688 541.172L24.655 541.172C14.9992 541.172 7.17157 533.344 7.17157 523.688Z" fill="#FF0000" fill-rule="evenodd"/></g></g><path d="M696 160.483C696 150.828 703.828 143 713.483 143L1220.52 143C1230.17 143 1238 150.828 1238 160.483L1238 659.517C1238 669.172 1230.17 677 1220.52 677L713.483 677C703.828 677 696 669.172 696 659.517Z" fill="url(#fill14)" fill-rule="evenodd"/><g filter="url(#fx7)" transform="translate(692 139)"><g><path d="M6.82843 13.1192C6.82843 9.64489 9.64489 6.82843 13.1192 6.82843L542.538 6.82843C546.012 6.82843 548.828 9.64489 548.828 13.1192L548.828 534.538C548.828 538.012 546.012 540.828 542.538 540.828L13.1192 540.828C9.64489 540.828 6.82843 538.012 6.82843 534.538Z" fill="#FF0000" fill-rule="evenodd"/></g></g><path d="M696 149.291C696 145.816 698.816 143 702.291 143L1231.71 143C1235.18 143 1238 145.816 1238 149.291L1238 670.709C1238 674.184 1235.18 677 1231.71 677L702.291 677C698.816 677 696 674.184 696 670.709Z" fill="url(#fill15)" fill-rule="evenodd"/></g></svg>