<svg width="1280" height="720" xmlns="http://www.w3.org/2000/svg" xmlns:xlink="http://www.w3.org/1999/xlink" overflow="hidden"><defs><filter id="fx0" x="-10%" y="-10%" width="120%" height="120%" filterUnits="userSpaceOnUse" primitiveUnits="userSpaceOnUse"><feComponentTransfer color-interpolation-filters="sRGB"><feFuncR type="discrete" tableValues="0 0"/><feFuncG type="discrete" tableValues="0 0"/><feFuncB type="discrete" tableValues="0 0"/><feFuncA type="linear" slope="0.231373" intercept="0"/></feComponentTransfer><feGaussianBlur stdDeviation="1.77778 1.77778"/></filter><filter id="fx1" x="-10%" y="-10%" width="120%" height="120%" filterUnits="userSpaceOnUse" primitiveUnits="userSpaceOnUse"><feComponentTransfer color-interpolation-filters="sRGB"><feFuncR type="discrete" tableValues="0 0"/><feFuncG type="discrete" tableValues="0 0"/><feFuncB type="discrete" tableValues="0 0"/><feFuncA type="linear" slope="0.4" intercept="0"/></feComponentTransfer><feGaussianBlur stdDeviation="1.77778 1.77778"/></filter><filter id="fx2" x="-10%" y="-10%" width="120%" height="120%" filterUnits="userSpaceOnUse" primitiveUnits="userSpaceOnUse"><feComponentTransfer color-interpolation-filters="sRGB"><feFuncR type="discrete" tableValues="0 0"/><feFuncG type="discrete" tableValues="0 0"/><feFuncB type="discrete" tableValues="0 0"/><feFuncA type="linear" slope="0.4" intercept="0"/></feComponentTransfer><feGaussianBlur stdDeviation="1.77778 1.77778"/></filter><filter id="fx3" x="-10%" y="-10%" width="120%" height="120%" filterUnits="userSpaceOnUse" primitiveUnits="userSpaceOnUse"><feComponentTransfer color-interpolation-filters="sRGB"><feFuncR type="discrete" tableValues="0 0"/><feFuncG type="discrete" tableValues="0 0"/><feFuncB type="discrete" tableValues="0 0"/><feFuncA type="linear" slope="0.4" intercept="0"/></feComponentTransfer><feGaussianBlur stdDeviation="1.77778 1.77778"/></filter><filter id="fx4" x="-10%" y="-10%" width="120%" height="120%" filterUnits="userSpaceOnUse" primitiveUnits="userSpaceOnUse"><feComponentTransfer color-interpolation-filters="sRGB"><feFuncR type="discrete" tableValues="0 0"/><feFuncG type="discrete" tableValues="0 0"/><feFuncB type="discrete" tableValues="0 0"/><feFuncA type="linear" slope="0.4" intercept="0"/></feComponentTransfer><feGaussianBlur stdDeviation="1.77778 1.77778"/></filter><filter id="fx5" x="-10%" y="-10%" width="120%" height="120%" filterUnits="userSpaceOnUse" primitiveUnits="userSpaceOnUse"><feComponentTransfer color-interpolation-filters="sRGB"><feFuncR type="discrete" tableValues="0 0"/><feFuncG type="discrete" tableValues="0 0"/><feFuncB type="discrete" tableValues="0 0"/><feFuncA type="linear" slope="0.4" intercept="0"/></feComponentTransfer><feGaussianBlur stdDeviation="1.77778 1.77778"/></filter><clipPath id="clip6"><rect x="0" y="0" width="1280" height="720"/></clipPath><linearGradient x1="110.616" y1="327.261" x2="244.384" y2="-40.2611" gradientUnits="userSpaceOnUse" spreadMethod="reflect" id="fill7"><stop offset="0" stop-color="#5E5E5E" stop-opacity="0.721569"/><stop offset="0.01" stop-color="#5E5E5E" stop-opacity="0.721569"/><stop offset="1" stop-color="#5B5B5B" stop-opacity="0.109804"/></linearGradient><linearGradient x1="110.616" y1="327.261" x2="244.384" y2="-40.2611" gradientUnits="userSpaceOnUse" spreadMethod="reflect" id="fill8"><stop offset="0" stop-color="#5E5E5E" stop-opacity="0.721569"/><stop offset="0.01" stop-color="#5E5E5E" stop-opacity="0.721569"/><stop offset="1" stop-color="#5B5B5B" stop-opacity="0.109804"/></linearGradient><linearGradient x1="73.648" y1="598.806" x2="301.352" y2="-26.8057" gradientUnits="userSpaceOnUse" spreadMethod="reflect" id="fill9"><stop offset="0" stop-color="#5E5E5E" stop-opacity="0.721569"/><stop offset="0.01" stop-color="#5E5E5E" stop-opacity="0.721569"/><stop offset="1" stop-color="#5B5B5B" stop-opacity="0.109804"/></linearGradient><linearGradient x1="73.648" y1="598.806" x2="301.352" y2="-26.8057" gradientUnits="userSpaceOnUse" spreadMethod="reflect" id="fill10"><stop offset="0" stop-color="#5E5E5E" stop-opacity="0.721569"/><stop offset="0.01" stop-color="#5E5E5E" stop-opacity="0.721569"/><stop offset="1" stop-color="#5B5B5B" stop-opacity="0.109804"/></linearGradient><linearGradient x1="96.0888" y1="307.973" x2="220.911" y2="-34.9734" gradientUnits="userSpaceOnUse" spreadMethod="reflect" id="fill11"><stop offset="0" stop-color="#5E5E5E" stop-opacity="0.721569"/><stop offset="0.01" stop-color="#5E5E5E" stop-opacity="0.721569"/><stop offset="1" stop-color="#5B5B5B" stop-opacity="0.109804"/></linearGradient><linearGradient x1="96.0888" y1="307.973" x2="220.911" y2="-34.9734" gradientUnits="userSpaceOnUse" spreadMethod="reflect" id="fill12"><stop offset="0" stop-color="#5E5E5E" stop-opacity="0.721569"/><stop offset="0.01" stop-color="#5E5E5E" stop-opacity="0.721569"/><stop offset="1" stop-color="#5B5B5B" stop-opacity="0.109804"/></linearGradient><linearGradient x1="194.546" y1="343.809" x2="345.454" y2="-70.8089" gradientUnits="userSpaceOnUse" spreadMethod="reflect" id="fill13"><stop offset="0" stop-color="#5E5E5E" stop-opacity="0.721569"/><stop offset="0.01" stop-color="#5E5E5E" stop-opacity="0.721569"/><stop offset="1" stop-color="#5B5B5B" stop-opacity="0.109804"/></linearGradient><linearGradient x1="194.546" y1="343.809" x2="345.454" y2="-70.8089" gradientUnits="userSpaceOnUse" spreadMethod="reflect" id="fill14"><stop offset="0" stop-color="#5E5E5E" stop-opacity="0.721569"/><stop offset="0.01" stop-color="#5E5E5E" stop-opacity="0.721569"/><stop offset="1" stop-color="#5B5B5B" stop-opacity="0.109804"/></linearGradient><linearGradient x1="175.519" y1="350.884" x2="326.481" y2="-63.8835" gradientUnits="userSpaceOnUse" spreadMethod="reflect" id="fill15"><stop offset="0" stop-color="#5E5E5E" stop-opacity="0.721569"/><stop offset="0.01" stop-color="#5E5E5E" stop-opacity="0.721569"/><stop offset="1" stop-color="#5B5B5B" stop-opacity="0.109804"/></linearGradient><linearGradient x1="175.519" y1="350.884" x2="326.481" y2="-63.8835" gradientUnits="userSpaceOnUse" spreadMethod="reflect" id="fill16"><stop offset="0" stop-color="#5E5E5E" stop-opacity="0.721569"/><stop offset="0.01" stop-color="#5E5E5E" stop-opacity="0.721569"/><stop offset="1" stop-color="#5B5B5B" stop-opacity="0.109804"/></linearGradient></defs><g clip-path="url(#clip6)"><rect x="0" y="0" width="1280" height="720" fill="#FFFFFF"/><g filter="url(#fx0)" transform="translate(-6 -2)"><g><rect x="6" y="7.33333" width="1280" height="720" fill="#262626"/></g></g><rect x="0" y="0" width="1280" height="720" fill="#262626"/><g filter="url(#fx1)" transform="translate(9 419)"><g><path d="M0 10.266C-1.41238e-15 4.59626 4.59626-1.41238e-15 10.266-2.82477e-15L344.734 0C350.404-2.82477e-15 355 4.59626 355 10.266L355 276.734C355 282.404 350.404 287 344.734 287L10.266 287C4.59626 287 0 282.404 0 276.734Z" stroke="#5E5E5E" stroke-miterlimit="8" fill="url(#fill7)" fill-rule="evenodd" transform="matrix(1 -1.22465e-16 -1.22465e-16 -1 7.27129 294.271)"/></g></g><path d="M0 10.266C-1.41238e-15 4.59626 4.59626-1.41238e-15 10.266-2.82477e-15L344.734 0C350.404-2.82477e-15 355 4.59626 355 10.266L355 276.734C355 282.404 350.404 287 344.734 287L10.266 287C4.59626 287 0 282.404 0 276.734Z" stroke="#5E5E5E" stroke-width="0.333333" stroke-miterlimit="8" fill="url(#fill8)" fill-rule="evenodd" transform="matrix(1 -1.22465e-16 -1.22465e-16 -1 12.5001 709.5)"/><g filter="url(#fx2)" transform="translate(890 134)"><g><path d="M0 13.4136C-4.55146e-15 6.00547 6.00548 0 13.4136 0L361.586 0C368.995-4.55145e-15 375 6.00547 375 13.4136L375 558.586C375 565.995 368.995 572 361.586 572L13.4136 572C6.00548 572 0 565.995 0 558.586Z" stroke="#5E5E5E" stroke-miterlimit="8" fill="url(#fill9)" fill-rule="evenodd" transform="matrix(1 -1.22465e-16 -1.22465e-16 -1 7.2713 579.271)"/></g></g><path d="M0 13.4136C-4.55146e-15 6.00547 6.00548 0 13.4136 0L361.586 0C368.995-4.55145e-15 375 6.00547 375 13.4136L375 558.586C375 565.995 368.995 572 361.586 572L13.4136 572C6.00548 572 0 565.995 0 558.586Z" stroke="#5E5E5E" stroke-width="0.333333" stroke-miterlimit="8" fill="url(#fill10)" fill-rule="evenodd" transform="matrix(1 -1.22465e-16 -1.22465e-16 -1 893.5 709.5)"/><g filter="url(#fx3)" transform="translate(9 134)"><g><path d="M0 9.76515C0 4.37201 4.37201-3.78359e-15 9.76515-5.04479e-15L307.235 0C312.628-2.5224e-15 317 4.37201 317 9.76515L317 263.235C317 268.628 312.628 273 307.235 273L9.76515 273C4.37201 273-1.2612e-15 268.628 0 263.235Z" stroke="#5E5E5E" stroke-miterlimit="8" fill="url(#fill11)" fill-rule="evenodd" transform="matrix(1 -1.22465e-16 -1.22465e-16 -1 7.27129 280.271)"/></g></g><path d="M0 9.76515C0 4.37201 4.37201-3.78359e-15 9.76515-5.04479e-15L307.235 0C312.628-2.5224e-15 317 4.37201 317 9.76515L317 263.235C317 268.628 312.628 273 307.235 273L9.76515 273C4.37201 273-1.2612e-15 268.628 0 263.235Z" stroke="#5E5E5E" stroke-width="0.333333" stroke-miterlimit="8" fill="url(#fill12)" fill-rule="evenodd" transform="matrix(1 -1.22465e-16 -1.22465e-16 -1 12.5001 410.5)"/><g filter="url(#fx4)" transform="translate(338 134)"><g><path d="M0 9.76535C-2.14841e-15 4.3721 4.3721 0 9.76535 0L530.235 0C535.628-2.14841e-15 540 4.3721 540 9.76535L540 263.235C540 268.628 535.628 273 530.235 273L9.76535 273C4.3721 273 0 268.628 0 263.235Z" stroke="#5E5E5E" stroke-miterlimit="8" fill="url(#fill13)" fill-rule="evenodd" transform="matrix(1 -1.22465e-16 -1.22465e-16 -1 7.2713 280.271)"/></g></g><path d="M0 9.76535C-2.14841e-15 4.3721 4.3721 0 9.76535 0L530.235 0C535.628-2.14841e-15 540 4.3721 540 9.76535L540 263.235C540 268.628 535.628 273 530.235 273L9.76535 273C4.3721 273 0 268.628 0 263.235Z" stroke="#5E5E5E" stroke-width="0.333333" stroke-miterlimit="8" fill="url(#fill14)" fill-rule="evenodd" transform="matrix(1 -1.22465e-16 -1.22465e-16 -1 341.5 410.5)"/><g filter="url(#fx5)" transform="translate(376 418)"><g><path d="M0 10.2662C-1.99723e-15 4.59633 4.59633 0 10.2662 0L491.734 0C497.404-1.99723e-15 502 4.59633 502 10.2662L502 276.734C502 282.404 497.404 287 491.734 287L10.2662 287C4.59633 287 0 282.404 0 276.734Z" stroke="#5E5E5E" stroke-miterlimit="8" fill="url(#fill15)" fill-rule="evenodd" transform="matrix(1 -1.22465e-16 -1.22465e-16 -1 7.2713 294.271)"/></g></g><path d="M0 10.2662C-1.99723e-15 4.59633 4.59633 0 10.2662 0L491.734 0C497.404-1.99723e-15 502 4.59633 502 10.2662L502 276.734C502 282.404 497.404 287 491.734 287L10.2662 287C4.59633 287 0 282.404 0 276.734Z" stroke="#5E5E5E" stroke-width="0.333333" stroke-miterlimit="8" fill="url(#fill16)" fill-rule="evenodd" transform="matrix(1 -1.22465e-16 -1.22465e-16 -1 379.5 708.5)"/></g></svg>