<svg width="1280" height="720" xmlns="http://www.w3.org/2000/svg" xmlns:xlink="http://www.w3.org/1999/xlink" overflow="hidden"><defs><filter id="fx0" x="-10%" y="-10%" width="120%" height="120%" filterUnits="userSpaceOnUse" primitiveUnits="userSpaceOnUse"><feComponentTransfer color-interpolation-filters="sRGB"><feFuncR type="discrete" tableValues="1 1"/><feFuncG type="discrete" tableValues="1 1"/><feFuncB type="discrete" tableValues="1 1"/><feFuncA type="linear" slope="0.6" intercept="0"/></feComponentTransfer><feGaussianBlur stdDeviation="5.33333 5.33333"/></filter><filter id="fx1" x="-10%" y="-10%" width="120%" height="120%" filterUnits="userSpaceOnUse" primitiveUnits="userSpaceOnUse"><feComponentTransfer color-interpolation-filters="sRGB"><feFuncR type="discrete" tableValues="0.498039 0.498039"/><feFuncG type="discrete" tableValues="0.498039 0.498039"/><feFuncB type="discrete" tableValues="0.498039 0.498039"/><feFuncA type="linear" slope="0.4" intercept="0"/></feComponentTransfer><feGaussianBlur stdDeviation="1.77778 1.77778"/></filter><filter id="fx2" x="-10%" y="-10%" width="120%" height="120%" filterUnits="userSpaceOnUse" primitiveUnits="userSpaceOnUse"><feComponentTransfer color-interpolation-filters="sRGB"><feFuncR type="discrete" tableValues="1 1"/><feFuncG type="discrete" tableValues="1 1"/><feFuncB type="discrete" tableValues="1 1"/><feFuncA type="linear" slope="0.6" intercept="0"/></feComponentTransfer><feGaussianBlur stdDeviation="5.33333 5.33333"/></filter><filter id="fx3" x="-10%" y="-10%" width="120%" height="120%" filterUnits="userSpaceOnUse" primitiveUnits="userSpaceOnUse"><feComponentTransfer color-interpolation-filters="sRGB"><feFuncR type="discrete" tableValues="0.498039 0.498039"/><feFuncG type="discrete" tableValues="0.498039 0.498039"/><feFuncB type="discrete" tableValues="0.498039 0.498039"/><feFuncA type="linear" slope="0.4" intercept="0"/></feComponentTransfer><feGaussianBlur stdDeviation="1.77778 1.77778"/></filter><filter id="fx4" x="-10%" y="-10%" width="120%" height="120%" filterUnits="userSpaceOnUse" primitiveUnits="userSpaceOnUse"><feComponentTransfer color-interpolation-filters="sRGB"><feFuncR type="discrete" tableValues="1 1"/><feFuncG type="discrete" tableValues="1 1"/><feFuncB type="discrete" tableValues="1 1"/><feFuncA type="linear" slope="0.6" intercept="0"/></feComponentTransfer><feGaussianBlur stdDeviation="5.33333 5.33333"/></filter><filter id="fx5" x="-10%" y="-10%" width="120%" height="120%" filterUnits="userSpaceOnUse" primitiveUnits="userSpaceOnUse"><feComponentTransfer color-interpolation-filters="sRGB"><feFuncR type="discrete" tableValues="0.498039 0.498039"/><feFuncG type="discrete" tableValues="0.498039 0.498039"/><feFuncB type="discrete" tableValues="0.498039 0.498039"/><feFuncA type="linear" slope="0.4" intercept="0"/></feComponentTransfer><feGaussianBlur stdDeviation="1.77778 1.77778"/></filter><filter id="fx6" x="-10%" y="-10%" width="120%" height="120%" filterUnits="userSpaceOnUse" primitiveUnits="userSpaceOnUse"><feComponentTransfer color-interpolation-filters="sRGB"><feFuncR type="discrete" tableValues="1 1"/><feFuncG type="discrete" tableValues="1 1"/><feFuncB type="discrete" tableValues="1 1"/><feFuncA type="linear" slope="0.6" intercept="0"/></feComponentTransfer><feGaussianBlur stdDeviation="5.33333 5.33333"/></filter><filter id="fx7" x="-10%" y="-10%" width="120%" height="120%" filterUnits="userSpaceOnUse" primitiveUnits="userSpaceOnUse"><feComponentTransfer color-interpolation-filters="sRGB"><feFuncR type="discrete" tableValues="0.498039 0.498039"/><feFuncG type="discrete" tableValues="0.498039 0.498039"/><feFuncB type="discrete" tableValues="0.498039 0.498039"/><feFuncA type="linear" slope="0.4" intercept="0"/></feComponentTransfer><feGaussianBlur stdDeviation="1.77778 1.77778"/></filter><filter id="fx8" x="-10%" y="-10%" width="120%" height="120%" filterUnits="userSpaceOnUse" primitiveUnits="userSpaceOnUse"><feComponentTransfer color-interpolation-filters="sRGB"><feFuncR type="discrete" tableValues="1 1"/><feFuncG type="discrete" tableValues="1 1"/><feFuncB type="discrete" tableValues="1 1"/><feFuncA type="linear" slope="0.6" intercept="0"/></feComponentTransfer><feGaussianBlur stdDeviation="5.33333 5.33333"/></filter><filter id="fx9" x="-10%" y="-10%" width="120%" height="120%" filterUnits="userSpaceOnUse" primitiveUnits="userSpaceOnUse"><feComponentTransfer color-interpolation-filters="sRGB"><feFuncR type="discrete" tableValues="0.498039 0.498039"/><feFuncG type="discrete" tableValues="0.498039 0.498039"/><feFuncB type="discrete" tableValues="0.498039 0.498039"/><feFuncA type="linear" slope="0.4" intercept="0"/></feComponentTransfer><feGaussianBlur stdDeviation="1.77778 1.77778"/></filter><filter id="fx10" x="-10%" y="-10%" width="120%" height="120%" filterUnits="userSpaceOnUse" primitiveUnits="userSpaceOnUse"><feComponentTransfer color-interpolation-filters="sRGB"><feFuncR type="discrete" tableValues="1 1"/><feFuncG type="discrete" tableValues="1 1"/><feFuncB type="discrete" tableValues="1 1"/><feFuncA type="linear" slope="0.6" intercept="0"/></feComponentTransfer><feGaussianBlur stdDeviation="5.33333 5.33333"/></filter><filter id="fx11" x="-10%" y="-10%" width="120%" height="120%" filterUnits="userSpaceOnUse" primitiveUnits="userSpaceOnUse"><feComponentTransfer color-interpolation-filters="sRGB"><feFuncR type="discrete" tableValues="1 1"/><feFuncG type="discrete" tableValues="1 1"/><feFuncB type="discrete" tableValues="1 1"/><feFuncA type="linear" slope="0.6" intercept="0"/></feComponentTransfer><feGaussianBlur stdDeviation="5.33333 5.33333"/></filter><filter id="fx12" x="-10%" y="-10%" width="120%" height="120%" filterUnits="userSpaceOnUse" primitiveUnits="userSpaceOnUse"><feComponentTransfer color-interpolation-filters="sRGB"><feFuncR type="discrete" tableValues="1 1"/><feFuncG type="discrete" tableValues="1 1"/><feFuncB type="discrete" tableValues="1 1"/><feFuncA type="linear" slope="0.6" intercept="0"/></feComponentTransfer><feGaussianBlur stdDeviation="5.33333 5.33333"/></filter><filter id="fx13" x="-10%" y="-10%" width="120%" height="120%" filterUnits="userSpaceOnUse" primitiveUnits="userSpaceOnUse"><feComponentTransfer color-interpolation-filters="sRGB"><feFuncR type="discrete" tableValues="1 1"/><feFuncG type="discrete" tableValues="1 1"/><feFuncB type="discrete" tableValues="1 1"/><feFuncA type="linear" slope="0.6" intercept="0"/></feComponentTransfer><feGaussianBlur stdDeviation="5.33333 5.33333"/></filter><filter id="fx14" x="-10%" y="-10%" width="120%" height="120%" filterUnits="userSpaceOnUse" primitiveUnits="userSpaceOnUse"><feComponentTransfer color-interpolation-filters="sRGB"><feFuncR type="discrete" tableValues="0 0"/><feFuncG type="discrete" tableValues="0 0"/><feFuncB type="discrete" tableValues="0 0"/><feFuncA type="linear" slope="0.188235" intercept="0"/></feComponentTransfer><feGaussianBlur stdDeviation="1.77778 1.77778"/></filter></defs><g><rect x="0" y="0" width="1280" height="720" fill="#FFFFFF"/><rect x="0" y="0" width="1280" height="720" fill="#FFFEFB"/><path d="M13 29.1476C13 19.125 21.125 11 31.1476 11L1248.85 11C1258.88 11 1267 19.125 1267 29.1476L1267 690.852C1267 700.875 1258.88 709 1248.85 709L31.1476 709C21.125 709 13 700.875 13 690.852Z" fill="#EFEFEF" fill-rule="evenodd"/><g filter="url(#fx0)" transform="translate(1041 61)"><g><path d="M196.726 17.286C203.11 17.286 208.286 22.4617 208.286 28.8463L208.286 79.7257C208.286 86.1103 203.11 91.286 196.726 91.286L28.8461 91.286C22.4616 91.286 17.2859 86.1103 17.2859 79.7257L17.2859 28.8463C17.2859 22.4617 22.4616 17.286 28.8461 17.286Z" fill="#FFFFFF" fill-rule="evenodd"/></g></g><path d="M1242.44 83.0001C1248.82 83.0001 1254 88.1758 1254 94.5603L1254 145.44C1254 151.824 1248.82 157 1242.44 157L1074.56 157C1068.18 157 1063 151.824 1063 145.44L1063 94.5603C1063 88.1758 1068.18 83.0001 1074.56 83.0001Z" fill="#FFFFFF" fill-rule="evenodd"/><g filter="url(#fx1)" transform="translate(23 162)"><g><path d="M6.82843 18.8309C6.82843 12.2021 12.2021 6.82843 18.8309 6.82843L314.826 6.82843C321.455 6.82843 326.828 12.2021 326.828 18.8309L326.828 247.826C326.828 254.455 321.455 259.828 314.826 259.828L18.8309 259.828C12.2021 259.828 6.82843 254.455 6.82843 247.826Z" fill="#FFFFFF" fill-rule="evenodd"/></g></g><path d="M27 178.002C27 171.374 32.3737 166 39.0024 166L334.998 166C341.626 166 347 171.374 347 178.002L347 406.998C347 413.626 341.626 419 334.998 419L39.0024 419C32.3737 419 27 413.626 27 406.998Z" fill="#FFFFFF" fill-rule="evenodd"/><g filter="url(#fx2)" transform="translate(4 144)"><g><path d="M17.286 29.2884C17.286 22.6596 22.6596 17.2859 29.2884 17.2859L325.283 17.2859C331.912 17.2859 337.286 22.6596 337.286 29.2884L337.286 258.283C337.286 264.912 331.912 270.286 325.283 270.286L29.2884 270.286C22.6596 270.286 17.286 264.912 17.286 258.283Z" fill="#FFFFFF" fill-rule="evenodd"/></g></g><path d="M26 178.002C26 171.374 31.3737 166 38.0024 166L333.998 166C340.626 166 346 171.374 346 178.002L346 406.998C346 413.626 340.626 419 333.998 419L38.0024 419C31.3737 419 26 413.626 26 406.998Z" fill="#FFFFFF" fill-rule="evenodd"/><g filter="url(#fx3)" transform="translate(371 162)"><g><path d="M6.82843 24.666C6.82843 14.8146 14.8146 6.82843 24.666 6.82843L364.991 6.82843C374.842 6.82843 382.828 14.8146 382.828 24.666L382.828 515.991C382.828 525.842 374.842 533.828 364.991 533.828L24.666 533.828C14.8146 533.828 6.82843 525.842 6.82843 515.991Z" fill="#FFFFFF" fill-rule="evenodd"/></g></g><path d="M375 183.838C375 173.986 382.986 166 392.838 166L733.162 166C743.014 166 751 173.986 751 183.838L751 675.162C751 685.014 743.014 693 733.162 693L392.838 693C382.986 693 375 685.014 375 675.162Z" fill="#FFFFFF" fill-rule="evenodd"/><g filter="url(#fx4)" transform="translate(352 144)"><g><path d="M17.2859 35.0762C17.2859 25.2509 25.2509 17.2859 35.0762 17.2859L374.496 17.2859C384.321 17.2859 392.286 25.2509 392.286 35.0762L392.286 526.496C392.286 536.321 384.321 544.286 374.496 544.286L35.0762 544.286C25.2509 544.286 17.2859 536.321 17.2859 526.496Z" fill="#FFFFFF" fill-rule="evenodd"/></g></g><path d="M374 183.79C374 173.965 381.965 166 391.79 166L731.21 166C741.035 166 749 173.965 749 183.79L749 675.21C749 685.035 741.035 693 731.21 693L391.79 693C381.965 693 374 685.035 374 675.21Z" fill="#FFFFFF" fill-rule="evenodd"/><g filter="url(#fx5)" transform="translate(773 163)"><g><path d="M472.874 6.82843C479.476 6.82843 484.828 12.1807 484.828 18.7831L484.828 246.874C484.828 253.476 479.476 258.828 472.874 258.828L18.7831 258.828C12.1807 258.828 6.8284 253.476 6.8284 246.874L6.8284 18.7831C6.8284 12.1807 12.1807 6.82843 18.7831 6.82843Z" fill="#FFFFFF" fill-rule="evenodd"/></g></g><path d="M1243.05 167C1249.65 167 1255 172.352 1255 178.955L1255 407.045C1255 413.648 1249.65 419 1243.05 419L788.955 419C782.352 419 777 413.648 777 407.045L777 178.955C777 172.352 782.352 167 788.955 167Z" fill="#FFFFFF" fill-rule="evenodd"/><g filter="url(#fx6)" transform="translate(755 144)"><g><path d="M483.331 17.2859C489.934 17.2859 495.286 22.6383 495.286 29.2407L495.286 257.331C495.286 263.934 489.934 269.286 483.331 269.286L29.2406 269.286C22.6382 269.286 17.2859 263.934 17.2859 257.331L17.2859 29.2407C17.2859 22.6383 22.6382 17.2859 29.2406 17.2859Z" fill="#FFFFFF" fill-rule="evenodd"/></g></g><path d="M1243.05 166C1249.65 166 1255 171.352 1255 177.955L1255 406.045C1255 412.648 1249.65 418 1243.05 418L788.955 418C782.352 418 777 412.648 777 406.045L777 177.955C777 171.352 782.352 166 788.955 166Z" fill="#FFFFFF" fill-rule="evenodd"/><g filter="url(#fx7)" transform="translate(773 434)"><g><path d="M472.874 6.82843C479.476 6.82843 484.828 12.1807 484.828 18.7831L484.828 246.874C484.828 253.476 479.476 258.828 472.874 258.828L18.7831 258.828C12.1807 258.828 6.8284 253.476 6.8284 246.874L6.8284 18.7831C6.8284 12.1807 12.1807 6.82843 18.7831 6.82843Z" fill="#FFFFFF" fill-rule="evenodd"/></g></g><path d="M1243.05 438C1249.65 438 1255 443.352 1255 449.955L1255 678.045C1255 684.648 1249.65 690 1243.05 690L788.955 690C782.352 690 777 684.648 777 678.045L777 449.955C777 443.352 782.352 438 788.955 438Z" fill="#FFFFFF" fill-rule="evenodd"/><g filter="url(#fx8)" transform="translate(755 415)"><g><path d="M483.331 17.2859C489.934 17.2859 495.286 22.6383 495.286 29.2407L495.286 257.331C495.286 263.934 489.934 269.286 483.331 269.286L29.2406 269.286C22.6382 269.286 17.2859 263.934 17.2859 257.331L17.2859 29.2407C17.2859 22.6383 22.6382 17.2859 29.2406 17.2859Z" fill="#FFFFFF" fill-rule="evenodd"/></g></g><path d="M1243.05 437C1249.65 437 1255 442.352 1255 448.955L1255 677.045C1255 683.648 1249.65 689 1243.05 689L788.955 689C782.352 689 777 683.648 777 677.045L777 448.955C777 442.352 782.352 437 788.955 437Z" fill="#FFFFFF" fill-rule="evenodd"/><g filter="url(#fx9)" transform="translate(27 433)"><g><path d="M6.82843 18.8307C6.82843 12.202 12.202 6.82843 18.8307 6.82843L311.826 6.82843C318.455 6.82843 323.828 12.202 323.828 18.8307L323.828 247.826C323.828 254.455 318.455 259.828 311.826 259.828L18.8307 259.828C12.202 259.828 6.82843 254.455 6.82843 247.826Z" fill="#FFFFFF" fill-rule="evenodd"/></g></g><path d="M31 449.002C31 442.374 36.3736 437 43.0023 437L335.998 437C342.626 437 348 442.374 348 449.002L348 677.998C348 684.626 342.626 690 335.998 690L43.0023 690C36.3736 690 31 684.626 31 677.998Z" fill="#FFFFFF" fill-rule="evenodd"/><g filter="url(#fx10)" transform="translate(8 415)"><g><path d="M17.286 29.2882C17.286 22.6595 22.6595 17.2859 29.2882 17.2859L322.284 17.2859C328.912 17.2859 334.286 22.6595 334.286 29.2882L334.286 258.284C334.286 264.912 328.912 270.286 322.284 270.286L29.2882 270.286C22.6595 270.286 17.286 264.912 17.286 258.284Z" fill="#FFFFFF" fill-rule="evenodd"/></g></g><path d="M30 449.002C30 442.374 35.3736 437 42.0023 437L334.998 437C341.626 437 347 442.374 347 449.002L347 677.998C347 684.626 341.626 690 334.998 690L42.0023 690C35.3736 690 30 684.626 30 677.998Z" fill="#FFFFFF" fill-rule="evenodd"/><g filter="url(#fx11)" transform="translate(832 61)"><g><path d="M197.726 17.286C204.11 17.286 209.286 22.4617 209.286 28.8463L209.286 79.7256C209.286 86.1102 204.11 91.286 197.726 91.286L28.8462 91.286C22.4616 91.286 17.2859 86.1102 17.2859 79.7256L17.2859 28.8463C17.2859 22.4617 22.4616 17.286 28.8462 17.286Z" fill="#FFFFFF" fill-rule="evenodd"/></g></g><path d="M1034.44 83C1040.82 83 1046 88.1757 1046 94.5603L1046 145.44C1046 151.824 1040.82 157 1034.44 157L865.56 157C859.176 157 854 151.824 854 145.44L854 94.5603C854 88.1757 859.176 83 865.56 83Z" fill="#FFFFFF" fill-rule="evenodd"/><g filter="url(#fx12)" transform="translate(624 61)"><g><path d="M196.726 17.286C203.11 17.286 208.286 22.4617 208.286 28.8463L208.286 79.7257C208.286 86.1103 203.11 91.286 196.726 91.286L28.8461 91.286C22.4616 91.286 17.2859 86.1103 17.2859 79.7257L17.2859 28.8463C17.2859 22.4617 22.4616 17.286 28.8461 17.286Z" fill="#FFFFFF" fill-rule="evenodd"/></g></g><path d="M825.44 83.0001C831.824 83.0001 837 88.1758 837 94.5603L837 145.44C837 151.824 831.824 157 825.44 157L657.56 157C651.176 157 646 151.824 646 145.44L646 94.5603C646 88.1758 651.176 83.0001 657.56 83.0001Z" fill="#FFFFFF" fill-rule="evenodd"/><g filter="url(#fx13)" transform="translate(415 61)"><g><path d="M197.726 17.286C204.11 17.286 209.286 22.4617 209.286 28.8463L209.286 79.7256C209.286 86.1102 204.11 91.286 197.726 91.286L28.8463 91.286C22.4617 91.286 17.2859 86.1102 17.2859 79.7256L17.2859 28.8463C17.2859 22.4617 22.4617 17.286 28.8463 17.286Z" fill="#FFFFFF" fill-rule="evenodd"/></g></g><path d="M617.44 83C623.824 83 629 88.1757 629 94.5603L629 145.44C629 151.824 623.824 157 617.44 157L448.56 157C442.176 157 437 151.824 437 145.44L437 94.5603C437 88.1757 442.176 83 448.56 83Z" fill="#FFFFFF" fill-rule="evenodd"/><g filter="url(#fx14)" transform="translate(433 18)"><g><path d="M6.82843 14.9949C6.82843 10.4847 10.4847 6.82843 14.9949 6.82843L815.662 6.82843C820.172 6.82843 823.828 10.4847 823.828 14.9949L823.828 47.6619C823.828 52.1721 820.172 55.8284 815.662 55.8284L14.9949 55.8284C10.4847 55.8284 6.82843 52.1721 6.82843 47.6619Z" fill="#DCDCDC" fill-rule="evenodd"/></g></g><path d="M437 30.1665C437 25.6563 440.656 22 445.166 22L1245.83 22C1250.34 22 1254 25.6563 1254 30.1665L1254 62.8335C1254 67.3437 1250.34 71 1245.83 71L445.166 71C440.656 71 437 67.3437 437 62.8335Z" fill="#DCDCDC" fill-rule="evenodd"/></g></svg>